<mxfile host="app.diagrams.net" modified="2025-10-28T00:00:00.000Z" agent="Claude" version="24.0.0">
  <diagram name="Figure 4: External IAS" id="external">
    <mxGraphModel dx="1400" dy="1000" grid="1" gridSize="10" guides="1" tooltips="1" connect="1" arrows="1" fold="1" page="1" pageScale="1" pageWidth="1200" pageHeight="1100" math="0" shadow="0">
      <root>
        <mxCell id="0"/>
        <mxCell id="1" parent="0"/>

        <!-- User visualization intent -->
        <mxCell id="viz_intent" value="user visualization&#xa;intent (&quot;show feeds&quot;)" style="rounded=1;whiteSpace=wrap;html=1;fillColor=#E8F4F8;strokeColor=#333333;strokeWidth=2;fontSize=12;align=center;" vertex="1" parent="1">
          <mxGeometry x="100" y="50" width="200" height="60" as="geometry"/>
        </mxCell>

        <!-- User behavioral intent -->
        <mxCell id="behav_intent" value="user behavioral&#xa;intent (&quot;anonymize&quot;)" style="rounded=1;whiteSpace=wrap;html=1;fillColor=#E8F4F8;strokeColor=#333333;strokeWidth=2;fontSize=12;align=center;" vertex="1" parent="1">
          <mxGeometry x="900" y="50" width="200" height="60" as="geometry"/>
        </mxCell>

        <!-- ChRIS UI container (thinner now) -->
        <mxCell id="ui_container" value="ChRIS UI" style="rounded=0;whiteSpace=wrap;html=1;fillColor=#B3D9E6;strokeColor=#333333;strokeWidth=3;fontSize=14;fontStyle=1;verticalAlign=top;align=center;" vertex="1" parent="1">
          <mxGeometry x="50" y="170" width="1100" height="220" as="geometry"/>
        </mxCell>

        <!-- React components (presentation only) -->
        <mxCell id="react_layer" value="React components&#xa;(presentation only)" style="rounded=0;whiteSpace=wrap;html=1;fillColor=#B3D9E6;strokeColor=#333333;strokeWidth=1;fontSize=11;align=center;" vertex="1" parent="1">
          <mxGeometry x="60" y="210" width="1080" height="70" as="geometry"/>
        </mxCell>

        <!-- JS thin client library -->
        <mxCell id="js_lib" value="JS thin client library" style="rounded=0;whiteSpace=wrap;html=1;fillColor=#B3D9E6;strokeColor=#333333;strokeWidth=1;fontSize=11;align=center;" vertex="1" parent="1">
          <mxGeometry x="60" y="320" width="1080" height="60" as="geometry"/>
        </mxCell>

        <!-- IAS container (separate service) -->
        <mxCell id="ias_container" value="IAS" style="rounded=0;whiteSpace=wrap;html=1;fillColor=#FFE5B4;strokeColor=#333333;strokeWidth=3;fontSize=14;fontStyle=1;verticalAlign=top;align=center;" vertex="1" parent="1">
          <mxGeometry x="750" y="450" width="350" height="200" as="geometry"/>
        </mxCell>

        <!-- Intent Logic Orchestrator -->
        <mxCell id="orchestrator" value="Intent Logic&#xa;Orchestrator" style="rounded=1;whiteSpace=wrap;html=1;fillColor=#FFCCCC;strokeColor=#333333;strokeWidth=2;fontSize=11;align=center;dashed=1;dashPattern=8 8;" vertex="1" parent="1">
          <mxGeometry x="800" y="510" width="250" height="110" as="geometry"/>
        </mxCell>

        <!-- CUBE container -->
        <mxCell id="cube_container" value="CUBE" style="rounded=0;whiteSpace=wrap;html=1;fillColor=#C8E6C9;strokeColor=#333333;strokeWidth=3;fontSize=14;fontStyle=1;verticalAlign=top;align=center;" vertex="1" parent="1">
          <mxGeometry x="50" y="710" width="1100" height="280" as="geometry"/>
        </mxCell>

        <!-- Collection+JSON API -->
        <mxCell id="cj_api" value="Collection+JSON API" style="rounded=0;whiteSpace=wrap;html=1;fillColor=#C8E6C9;strokeColor=#333333;strokeWidth=1;fontSize=11;align=center;" vertex="1" parent="1">
          <mxGeometry x="60" y="750" width="1080" height="50" as="geometry"/>
        </mxCell>

        <!-- CUBE Python/Django internals -->
        <mxCell id="cube_internals" value="CUBE Python/Django internals&#xa;(declarative substrate preserved)" style="rounded=0;whiteSpace=wrap;html=1;fillColor=#C8E6C9;strokeColor=#333333;strokeWidth=1;fontSize=11;align=center;" vertex="1" parent="1">
          <mxGeometry x="60" y="860" width="1080" height="120" as="geometry"/>
        </mxCell>

        <!-- Arrow: viz intent down to React -->
        <mxCell id="arrow1" style="edgeStyle=orthogonalEdgeStyle;rounded=0;orthogonalLoop=1;jettySize=auto;html=1;strokeColor=#555555;strokeWidth=2;endArrow=classic;endFill=1;" edge="1" parent="1" source="viz_intent" target="react_layer">
          <mxGeometry relative="1" as="geometry"/>
        </mxCell>

        <!-- Arrow: behavioral intent down to React -->
        <mxCell id="arrow2" style="edgeStyle=orthogonalEdgeStyle;rounded=0;orthogonalLoop=1;jettySize=auto;html=1;strokeColor=#555555;strokeWidth=2;endArrow=classic;endFill=1;" edge="1" parent="1" source="behav_intent" target="react_layer">
          <mxGeometry relative="1" as="geometry"/>
        </mxCell>

        <!-- CRITICAL: Viz path BYPASSES IAS and goes straight to CUBE -->
        <mxCell id="arrow3" style="edgeStyle=orthogonalEdgeStyle;rounded=0;orthogonalLoop=1;jettySize=auto;html=1;entryX=0.15;entryY=0;entryDx=0;entryDy=0;strokeColor=#555555;strokeWidth=2;endArrow=classic;endFill=1;" edge="1" parent="1" source="js_lib" target="cj_api">
          <mxGeometry relative="1" as="geometry">
            <Array as="points">
              <mxPoint x="200" y="380"/>
              <mxPoint x="200" y="750"/>
            </Array>
          </mxGeometry>
        </mxCell>

        <!-- Arrow: Behavioral path goes through IAS -->
        <mxCell id="arrow4" style="edgeStyle=orthogonalEdgeStyle;rounded=0;orthogonalLoop=1;jettySize=auto;html=1;entryX=0.5;entryY=0;entryDx=0;entryDy=0;strokeColor=#555555;strokeWidth=2;endArrow=classic;endFill=1;" edge="1" parent="1" source="js_lib" target="orchestrator">
          <mxGeometry relative="1" as="geometry">
            <Array as="points">
              <mxPoint x="1000" y="380"/>
              <mxPoint x="925" y="380"/>
            </Array>
          </mxGeometry>
        </mxCell>

        <!-- Multiple arrows from IAS to CUBE (fan out) -->
        <mxCell id="arrow5a" style="edgeStyle=orthogonalEdgeStyle;rounded=0;orthogonalLoop=1;jettySize=auto;html=1;strokeColor=#555555;strokeWidth=1.5;endArrow=classic;endFill=1;dashed=1;" edge="1" parent="1" source="orchestrator" target="cj_api">
          <mxGeometry relative="1" as="geometry">
            <Array as="points">
              <mxPoint x="880" y="620"/>
              <mxPoint x="880" y="680"/>
              <mxPoint x="550" y="680"/>
            </Array>
          </mxGeometry>
        </mxCell>
        <mxCell id="arrow5b" style="edgeStyle=orthogonalEdgeStyle;rounded=0;orthogonalLoop=1;jettySize=auto;html=1;strokeColor=#555555;strokeWidth=1.5;endArrow=classic;endFill=1;dashed=1;" edge="1" parent="1" source="orchestrator" target="cj_api">
          <mxGeometry relative="1" as="geometry">
            <Array as="points">
              <mxPoint x="900" y="620"/>
              <mxPoint x="900" y="690"/>
              <mxPoint x="600" y="690"/>
            </Array>
          </mxGeometry>
        </mxCell>
        <mxCell id="arrow5c" style="edgeStyle=orthogonalEdgeStyle;rounded=0;orthogonalLoop=1;jettySize=auto;html=1;strokeColor=#555555;strokeWidth=1.5;endArrow=classic;endFill=1;dashed=1;" edge="1" parent="1" source="orchestrator" target="cj_api">
          <mxGeometry relative="1" as="geometry">
            <Array as="points">
              <mxPoint x="950" y="620"/>
              <mxPoint x="950" y="700"/>
              <mxPoint x="650" y="700"/>
            </Array>
          </mxGeometry>
        </mxCell>

      </root>
    </mxGraphModel>
  </diagram>
</mxfile>
